<svg width="25" height="25" viewBox="0 0 25 25" fill="none" xmlns="http://www.w3.org/2000/svg">
<path d="M12.4999 15.625C10.7812 15.625 9.37492 14.2188 9.37492 12.5C9.37492 10.7813 10.7812 9.375 12.4999 9.375C14.2187 9.375 15.6249 10.7813 15.6249 12.5C15.6249 14.2188 14.2187 15.625 12.4999 15.625ZM19.5312 10.5469C19.3749 9.97396 19.1405 9.42708 18.8541 8.93229L19.5051 6.97917L18.0208 5.49479L16.0676 6.14583C15.5468 5.85938 14.9999 5.625 14.427 5.46875L13.5416 3.64583H11.4583L10.5468 5.46875C9.97388 5.625 9.427 5.85938 8.93221 6.14583L6.97909 5.49479L5.49471 6.97917L6.14575 8.93229C5.85929 9.45313 5.62492 10 5.46867 10.5729L3.64575 11.4583V13.5417L5.46867 14.4531C5.62492 15.026 5.85929 15.5729 6.14575 16.0677L5.49471 18.0208L6.97909 19.5052L8.93221 18.8542C9.45304 19.1406 9.99992 19.375 10.5728 19.5313L11.4843 21.3542H13.5676L14.4791 19.5313C15.052 19.375 15.5989 19.1406 16.0937 18.8542L18.0468 19.5052L19.5312 18.0208L18.8801 16.0677C19.1666 15.5469 19.401 15 19.5572 14.4271L21.3801 13.5156V11.4323L19.5312 10.5469Z" fill="#171717"/>
</svg>
